<svg xmlns="http://www.w3.org/2000/svg" xmlns:xlink="http://www.w3.org/1999/xlink" width="248" height="248" viewBox="0 0 186 186"><path d="M0 0h186v186H0V0z"/><path d="M30.031 116.5zm13.125 0h-8.968V71.687h8.968v22.407l16.688-22.406H70.03L55.875 90.594 70.031 116.5H59.844L50 98.375l-6.844 9.156v8.969zm26.875 0zm30.531-17.906v-8.969c0-1.23-.24-2.385-.718-3.469a8.776 8.776 0 0 0-1.906-2.875 8.776 8.776 0 0 0-2.876-1.906 8.479 8.479 0 0 0-3.468-.719c-1.23 0-2.396.24-3.5.719a8.863 8.863 0 0 0-2.844 1.906 9.199 9.199 0 0 0-1.938 2.875 8.81 8.81 0 0 0-.687 3.469v8.969h17.938zm8.97 17.906h-8.97v-8.969H82.626v8.969h-8.938V89.625c0-2.48.47-4.802 1.407-6.969.937-2.187 2.208-4.094 3.812-5.719a18.157 18.157 0 0 1 5.688-3.843c2.187-.938 4.52-1.406 7-1.406 2.479 0 4.802.468 6.969 1.406 2.187.937 4.093 2.219 5.718 3.844 1.625 1.624 2.906 3.53 3.844 5.718.938 2.167 1.406 4.49 1.406 6.969V116.5zm3.312 0zm39.5-17.906c0 2.479-.469 4.812-1.406 7a18.157 18.157 0 0 1-3.844 5.687c-1.625 1.604-3.531 2.875-5.719 3.813-2.167.937-4.49 1.406-6.969 1.406s-4.812-.469-7-1.406c-2.166-.938-4.062-2.209-5.687-3.813-1.604-1.625-2.875-3.52-3.813-5.687-.937-2.188-1.406-4.521-1.406-7V71.688h8.938v26.906c0 1.229.229 2.385.687 3.469a9.302 9.302 0 0 0 1.938 2.843 9.302 9.302 0 0 0 2.843 1.938 9.039 9.039 0 0 0 3.5.687 8.81 8.81 0 0 0 3.469-.687 9.199 9.199 0 0 0 2.875-1.938 8.863 8.863 0 0 0 1.906-2.844c.48-1.083.719-2.24.719-3.468V71.688h8.969v26.906z" fill="#fff"/><use xlink:href="#a" transform="matrix(64 0 0 -64 30.031 116.5)"/><use xlink:href="#b" transform="matrix(64 0 0 -64 70.031 116.5)"/><use xlink:href="#c" transform="matrix(64 0 0 -64 112.79 116.5)"/></svg>